# xmcd
#
# Track frame offsets:
#	150
#	17418
#	55418
#	99797
#	128089
#	149448
#	186304
#	221071
#	281190
#
# Disc length: 4338 seconds
#
# Revision: 0
# Processed by: cddbd v1.5.2PL0 Copyright (c) Steve Scherf et al.
# Submitted via: audiograbber 1.83.01
#
DISCID=8510f009
DTITLE=Grateful Dead - 92-03-16 The Spectrum, Philadelphia PA
DYEAR=1900
DGENRE=
TTITLE0=Let The Good Times Roll
TTITLE1=Feel Like A Stranger
TTITLE2=Friend Of The Devil
TTITLE3=C C Rider
TTITLE4=It Takes A Train To Cry
TTITLE5=Black Throated Wind
TTITLE6=Ramble On Rose
TTITLE7=Let It Grow
TTITLE8=Corrina
EXTD=
EXTT0=
EXTT1=
EXTT2=
EXTT3=
EXTT4=
EXTT5=
EXTT6=
EXTT7=
EXTT8=
PLAYORDER=
